<svg width="24" height="23" fill="none" xmlns="http://www.w3.org/2000/svg"><g opacity=".5" stroke="#B2B2B2" stroke-linecap="round" stroke-linejoin="round"><path d="M15.592 1.22823c4.1112 1.532 7.04 5.4932 7.04 10.13877 0 5.9732-4.8428 10.8156-10.816 10.8156C5.8424 22.1826 1 17.3402 1 11.367 1 5.39343 5.8424.551025 11.816.551025c1.328 0 2.6004.2392 3.776.677205M11.8152 9.55127v6.31443M10.2383 15.8658h3.1572M10.2383 9.55132h1.5784"/><path fill-rule="evenodd" clip-rule="evenodd" d="M12.1316 7.18376c0 .1744-.1416.3156-.316.3156s-.3156-.1412-.3156-.3156.1412-.3156.3156-.3156.316.1412.316.3156z" fill="#B2B2B2"/></g></svg>