<svg width="352" height="264" fill="none" xmlns="http://www.w3.org/2000/svg"><path d="M327.085 189.868c-11.75 14.733-25.678 27.753-41.456 38.652-16.154 11.159-33.709 19.687-52.15 25.426-18.443 5.739-37.773 8.688-57.478 8.688-19.709 0-39.041-2.949-57.485-8.688-18.445-5.739-35.9997-14.267-52.1547-25.426-15.778-10.899-29.7051-23.92-41.4551-38.654M24.9062 73.7685c11.75-14.734 25.6771-27.755 41.4551-38.654 16.154-11.159 33.7097-19.687 52.1537-25.42601 18.445-5.739 37.777-8.688 57.486-8.688 19.705 0 39.035 2.949 57.477 8.688 18.442 5.73901 35.996 14.26701 52.151 25.42601 15.778 10.899 29.706 23.919 41.456 38.652" stroke="#B2B2B2" stroke-width="2" stroke-linecap="round" stroke-linejoin="round"/><path clip-rule="evenodd" d="M349.695 125.001c1.74 4.37 1.74 9.263 0 13.633-27.489 69.002-94.895 117.771-173.694 117.771-78.8117 0-146.2187-48.771-173.69675-117.774-1.739-4.368-1.739-9.259 0-13.628C29.7823 56 97.1893 7.22998 176.001 7.22998c78.799 0 146.205 48.76902 173.694 117.77102z" stroke="#1A1A1A" stroke-width="2" stroke-linecap="round" stroke-linejoin="round"/><path clip-rule="evenodd" d="M197.801 131.817c0-12.042-9.762-21.803-21.803-21.803-12.042 0-21.803 9.761-21.803 21.803 0 12.041 9.761 21.803 21.803 21.803 12.041 0 21.803-9.762 21.803-21.803z" stroke="#1A1A1A" stroke-width="2" stroke-linecap="round" stroke-linejoin="round"/><path clip-rule="evenodd" d="M213.376 131.817c0-41.2848-16.733-74.7518-37.376-74.7518-20.643 0-37.377 33.467-37.377 74.7518 0 41.285 16.734 74.752 37.377 74.752s37.376-33.467 37.376-74.752z" stroke="#B2B2B2" stroke-width="2" stroke-linecap="round" stroke-linejoin="round"/><path clip-rule="evenodd" d="M176 169.193c41.285 0 74.753-16.734 74.753-37.376 0-20.643-33.468-37.3758-74.753-37.3758s-74.754 16.7328-74.754 37.3758c0 20.642 33.469 37.376 74.754 37.376z" stroke="#B2B2B2" stroke-width="2" stroke-linecap="round" stroke-linejoin="round"/><path clip-rule="evenodd" d="M250.753 131.817c0-41.2848-33.468-74.7518-74.753-74.7518s-74.754 33.467-74.754 74.7518c0 41.285 33.469 74.752 74.754 74.752 41.285 0 74.753-33.467 74.753-74.752z" stroke="#1A1A1A" stroke-width="2" stroke-linecap="round" stroke-linejoin="round"/><path d="M189.879 31.8174c12.986 1.808 25.402 6.132 36.588 12.59 11.184 6.457 21.138 15.049 29.196 25.39 8.06 10.343 14.224 22.436 17.83 35.8956M162.121 231.817c-12.985-1.808-25.402-6.132-36.587-12.59-11.184-6.457-21.139-15.049-29.1972-25.39-8.059-10.343-14.223-22.436-17.829-35.896M239.918 38.4461l-50.039-6.629M112.082 225.188l50.039 6.629" stroke="#231F20" stroke-width="2" stroke-linecap="round" stroke-linejoin="round"/><path d="M258.922 187.728c3.595-5.32 6.689-11.005 9.22-16.987 2.53-5.982 4.495-12.261 5.827-18.771 1.332-6.51 2.031-13.25 2.031-20.153M93.079 75.906c-3.595 5.32-6.69 11.005-9.22 16.987-2.53 5.982-4.495 12.261-5.827 18.771C76.7 118.174 76 124.913 76 131.817" stroke="#B2B2B2" stroke-width="2" stroke-linecap="round" stroke-linejoin="round"/></svg>