<svg width="92" height="93" fill="none" xmlns="http://www.w3.org/2000/svg"><g opacity=".4" stroke-width="2" stroke-linecap="round" stroke-linejoin="round"><path d="M73.6424 58.2278c-1.519 3.589-3.715 6.822-6.43 9.536-2.715 2.714-5.946 4.911-9.536 6.429-3.589 1.518-7.535 2.358-11.677 2.358-4.142 0-8.088-.84-11.677-2.358-3.589-1.518-6.822-3.715-9.536-6.429-2.714-2.714-4.912-5.947-6.429-9.536M18.3574 34.8733c1.518-3.589 3.715-6.821 6.429-9.536 2.715-2.714 5.947-4.911 9.536-6.429 3.589-1.518 7.535-2.358 11.678-2.358 4.141 0 8.087.84 11.676 2.358 3.59 1.518 6.822 3.715 9.536 6.429 2.715 2.715 4.912 5.947 6.43 9.536M69.6426 72.0843l4-13.856M22.3574 21.0171l-4 13.856" stroke="#231F20"/><path d="M34.0586 46.622l7.628 7.929 16.256-16" stroke="#B2B2B2"/><path clip-rule="evenodd" d="M91 46.5508c0 24.853-20.147 45-45 45-24.854 0-45-20.147-45-45S21.146 1.55078 46 1.55078c24.853 0 45 20.14702 45 45.00002z" stroke="#B2B2B2"/></g></svg>