<svg width="93" height="105" fill="none" xmlns="http://www.w3.org/2000/svg"><g opacity=".4" stroke-width="2" stroke-linecap="round" stroke-linejoin="round"><path clip-rule="evenodd" d="M46.8066 33.2112c-11.049 0-20 8.952-20 20 0 6.312 2.92 11.944 7.487 15.6.777-4.352 3.761-7.92 7.752-9.528l4.769 5.688 4.752-5.704c3.992 1.616 6.975 5.192 7.76 9.536 4.56-3.656 7.48-9.28 7.48-15.592 0-11.048-8.952-20-20-20z" stroke="#1A1A1A"/><path clip-rule="evenodd" d="M53.3027 48.6912c0-3.59-2.91-6.5-6.5-6.5-3.591 0-6.5 2.91-6.5 6.5s2.909 6.5 6.5 6.5c3.59 0 6.5-2.91 6.5-6.5z" stroke="#1A1A1A"/><path d="M14.8359 77.8171l25.913 14.961M8.79102 37.4177v29.921M84.8145 37.4177v29.921M40.7549 11.9788l-25.917 14.963M78.7666 26.942L52.8516 11.98M52.8555 92.7786l25.912-14.96" stroke="#B2B2B2"/><path clip-rule="evenodd" d="M53.7905 8.487c0-3.859-3.129-6.987-6.988-6.987-3.86 0-6.988 3.128-6.988 6.987s3.128 6.988 6.988 6.988c3.859 0 6.988-3.129 6.988-6.988zM12.2841 24.383c-3.34197-1.929-7.61497-.784-9.54397 2.557-1.929995 3.342-.784 7.615 2.558 9.544 3.34 1.929 7.61397.784 9.54297-2.557 1.929-3.342.784-7.615-2.557-9.544zM5.29769 68.2761c-3.342 1.929-4.487 6.202-2.558 9.543 1.929 3.342 6.203 4.487 9.54401 2.558 3.341-1.93 4.487-6.202 2.557-9.544-1.929-3.341-6.20201-4.486-9.54301-2.557zM39.8105 96.2732c0 3.8608 3.131 6.9908 6.991 6.9908 3.862 0 6.991-3.13 6.991-6.9908 0-3.861-3.129-6.991-6.991-6.991-3.86 0-6.991 3.13-6.991 6.991zM81.3226 80.3771c3.342 1.929 7.614.784 9.544-2.558 1.929-3.341.784-7.614-2.558-9.543-3.341-1.929-7.614-.784-9.544 2.557-1.928 3.342-.784 7.614 2.558 9.544zM88.3091 36.484c3.342-1.929 4.486-6.202 2.558-9.544-1.93-3.341-6.203-4.486-9.544-2.557-3.342 1.929-4.487 6.202-2.558 9.544 1.93 3.341 6.202 4.486 9.544 2.557z" stroke="#B2B2B2"/></g></svg>