<svg width="66" height="87" fill="none" xmlns="http://www.w3.org/2000/svg"><path d="M57.6726 79.9282v2.429c0 2.012-1.631 3.643-3.643 3.643h-41.286c-2.011 0-3.64204-1.631-3.64204-3.643v-2.429M57.6719 16.8923v53.322M9.09961 6.85776v-2.215c0-2.012 1.63099-3.643004 3.64299-3.643004h41.286c2.011 0 3.642 1.631004 3.642 3.643004v2.643" stroke="#B2B2B2" stroke-width="2" stroke-linecap="round" stroke-linejoin="round"/><path clip-rule="evenodd" d="M34.3848 79.9292c0-.552-.447-1-1-1-.552 0-1 .448-1 1s.448 1 1 1c.553 0 1-.448 1-1z" stroke="#B2B2B2" stroke-width="2" stroke-linecap="round" stroke-linejoin="round"/><path d="M16.3855 75.0715H1.81445v-14.572M1.81445 26.5V11.929H16.3855M50.3848 11.9287h14.571v14.571M64.9577 60.5v14.572h-14.571M33.3848 33.5v20M43.3848 43.5h-20" stroke="#1A1A1A" stroke-width="2" stroke-linecap="round" stroke-linejoin="round"/></svg>