<svg width="77" height="77" fill="none" xmlns="http://www.w3.org/2000/svg"><g opacity=".400995" stroke-width="2" stroke-linecap="round" stroke-linejoin="round"><path d="M8.91882 45.9451v14.7887M33.3531 62.8995l-19.1871-19.12M60.8594 68.1282H46.0195M43.8457 14.2021l19.1871 19.12M16.3398 8.97313h14.8399M68.2802 45.9451v14.7887" stroke="#B2B2B2"/><g clip-rule="evenodd" stroke="#1A1A1A"><path d="M16.3399 8.97322c0 4.08358-3.3214 7.39438-7.41995 7.39438C4.82228 16.3676 1.5 13.0568 1.5 8.97322c0-4.08353 3.32228-7.39436 7.41995-7.39436 4.09855 0 7.41995 3.31083 7.41995 7.39436zM46.0196 8.97322c0 4.08358-3.3214 7.39438-7.42 7.39438-4.0976 0-7.4199-3.3108-7.4199-7.39438 0-4.08353 3.3223-7.39436 7.4199-7.39436 4.0986 0 7.42 3.31083 7.42 7.39436zM75.6993 8.97322c0 4.08358-3.3214 7.39438-7.42 7.39438-4.0976 0-7.4199-3.3108-7.4199-7.39438 0-4.08353 3.3223-7.39436 7.4199-7.39436 4.0986 0 7.42 3.31083 7.42 7.39436zM16.3399 38.5506c0 4.0836-3.3214 7.3944-7.41995 7.3944C4.82228 45.945 1.5 42.6342 1.5 38.5506c0-4.0835 3.32228-7.3944 7.41995-7.3944 4.09855 0 7.41995 3.3109 7.41995 7.3944zM46.0196 38.5506c0 4.0836-3.3214 7.3944-7.42 7.3944-4.0976 0-7.4199-3.3108-7.4199-7.3944 0-4.0835 3.3223-7.3944 7.4199-7.3944 4.0986 0 7.42 3.3109 7.42 7.3944zM75.6993 38.5506c0 4.0836-3.3214 7.3944-7.42 7.3944-4.0976 0-7.4199-3.3108-7.4199-7.3944 0-4.0835 3.3223-7.3944 7.4199-7.3944 4.0986 0 7.42 3.3109 7.42 7.3944zM16.3399 68.128c0 4.0835-3.3214 7.3944-7.41995 7.3944C4.82228 75.5224 1.5 72.2115 1.5 68.128s3.32228-7.3944 7.41995-7.3944c4.09855 0 7.41995 3.3109 7.41995 7.3944zM46.0196 68.128c0 4.0835-3.3214 7.3944-7.42 7.3944-4.0976 0-7.4199-3.3109-7.4199-7.3944s3.3223-7.3944 7.4199-7.3944c4.0986 0 7.42 3.3109 7.42 7.3944zM75.6993 68.128c0 4.0835-3.3214 7.3944-7.42 7.3944-4.0976 0-7.4199-3.3109-7.4199-7.3944s3.3223-7.3944 7.4199-7.3944c4.0986 0 7.42 3.3109 7.42 7.3944z"/></g></g></svg>