<?xml version="1.0" encoding="UTF-8"?>
<svg width="273px" height="33px" viewBox="0 0 273 33" version="1.1" xmlns="http://www.w3.org/2000/svg" xmlns:xlink="http://www.w3.org/1999/xlink">
    <!-- Generator: Sketch 54.1 (76490) - https://sketchapp.com -->
    <title>Fill 1</title>
    <desc>Created with Sketch.</desc>
    <g id="Desktop" stroke="none" stroke-width="1" fill="none" fill-rule="evenodd">
        <g id="Tips-&amp;-Tools" transform="translate(-134.000000, -2578.000000)" fill="#B2B2B2">
            <g id="SKOUT-FAQs" transform="translate(134.000000, 2557.812500)">
                <path d="M194.014,40.654 L201.062,23.738 L208.111,40.654 L194.014,40.654 Z M199.428,21.075 L186.272,52.401 L189.114,52.401 L192.916,43.249 L209.206,43.249 L213.011,52.401 L215.942,52.401 L202.785,21.075 L199.428,21.075 Z M168.194,23.671 L186.764,23.671 L186.764,21.075 L165.463,21.075 L165.463,52.401 L168.194,52.401 L168.194,37.924 L186.027,37.924 L186.027,35.328 L168.194,35.328 L168.194,23.671 Z M238.542,37.096 L235.276,37.096 L242.973,46.74 C240.646,48.888 237.492,50.118 233.934,50.118 C226.504,50.118 220.732,44.726 220.732,36.738 C220.732,28.75 226.504,23.358 233.934,23.358 C241.34,23.358 247.113,28.75 247.113,36.738 C247.113,39.893 246.218,42.6 244.696,44.748 L238.542,37.096 Z M249.977,36.738 C249.977,27.34 243.084,20.717 233.934,20.717 C224.782,20.717 217.891,27.34 217.891,36.738 C217.891,46.135 224.782,52.758 233.934,52.758 C238.14,52.758 241.899,51.371 244.696,48.888 L247.56,52.401 L250.782,52.401 L246.486,47.008 C248.724,44.301 249.977,40.788 249.977,36.738 L249.977,36.738 Z M265.705,40.765 L263.02,40.452 C259.776,40.072 258.232,39.02 258.232,37.05 C258.232,34.657 260.537,33.247 263.827,33.247 C266.756,33.247 269.555,34.343 270.963,35.351 L272.061,33.382 C270.158,32.016 267.137,31.009 263.803,31.009 C258.948,31.009 255.614,33.337 255.614,37.185 C255.614,40.184 257.673,42.265 262.439,42.801 L265.145,43.092 C268.39,43.45 270.001,44.614 270.001,46.583 C270.001,49.201 267.383,50.521 263.58,50.521 C259.954,50.521 257.717,49.425 256.083,48.149 L254.898,50.051 C257.336,51.931 260.492,52.737 263.557,52.737 C268.972,52.737 272.619,50.431 272.619,46.426 C272.619,43.092 270.114,41.28 265.705,40.765 L265.705,40.765 Z M123.798,26.918 L133.506,26.918 L133.506,52.4 L139.752,52.4 L139.752,26.918 L149.46,26.918 L149.46,21.082 L123.798,21.082 L123.798,26.918 Z M57.565,21.082 L49.734,21.082 L39.379,33.767 L36.427,33.767 L36.427,21.082 L30.181,21.082 L30.181,52.4 L36.427,52.4 L36.427,39.516 L39.311,39.516 L50.454,52.4 L58.553,52.4 L44.432,36.359 L57.565,21.082 Z M16.035,33.991 L14.27,33.699 C10.51,33.096 7.806,32.356 7.806,30.075 C7.806,27.701 10.311,26.315 13.797,26.315 C16.856,26.315 19.553,27.222 21.859,28.497 L25.631,23.879 C21.672,21.529 18.074,20.541 13.667,20.541 C6.998,20.541 1.181,23.941 1.181,30.473 C1.181,36.16 5.208,38.553 10.734,39.448 L12.722,39.758 C17.085,40.473 19.372,41.257 19.372,43.432 C19.372,45.843 16.706,47.211 13.219,47.211 C9.472,47.211 6.073,45.849 3.779,44.234 L2.84217094e-13,48.87 C3.356,51.574 8.428,52.96 13.195,52.96 C19.932,52.96 26.017,49.647 26.017,42.76 C26.017,37.322 21.654,34.886 16.035,33.991 L16.035,33.991 Z M73.29,46.677 C67.801,46.677 63.354,42.23 63.354,36.74 C63.354,31.257 67.801,26.803 73.29,26.803 C78.774,26.803 83.221,31.257 83.221,36.74 C83.221,42.23 78.774,46.677 73.29,46.677 L73.29,46.677 Z M73.29,20.5 C64.316,20.5 57.044,27.772 57.044,36.74 C57.044,45.709 64.316,52.98 73.29,52.98 C82.259,52.98 89.531,45.709 89.531,36.74 C89.531,27.772 82.259,20.5 73.29,20.5 L73.29,20.5 Z M114.41,39.585 C114.41,44.706 111.476,46.987 107.182,46.987 C102.887,46.987 99.959,44.706 99.959,39.585 L99.959,21.082 L93.695,21.082 L93.695,39.895 C93.695,48.553 99.22,52.96 107.182,52.96 C115.15,52.96 120.674,48.553 120.674,39.895 L120.674,21.082 L114.41,21.082 L114.41,39.585 Z" id="Fill-1"></path>
            </g>
        </g>
    </g>
</svg>