<svg width="90" height="19" viewBox="0 0 90 19" fill="none" xmlns="http://www.w3.org/2000/svg">
<path fill-rule="evenodd" clip-rule="evenodd" d="M69.8564 14.9204H70.7855V5.32264H69.8564V14.9204ZM45.0674 3.30472H48.6015V14.9199H50.8753V3.30472H54.4094V0.64456H45.0674V3.30472ZM59.2764 1.82468H63.382V14.9204H64.3759V1.82468H68.4892V0.641375H59.2764V1.82468ZM87.4834 9.61646L86.5056 9.47424C85.3246 9.30058 84.7625 8.82151 84.7625 7.92355C84.7625 6.83231 85.6017 6.19006 86.799 6.19006C87.866 6.19006 88.8842 6.68919 89.3975 7.1482L89.7961 6.25114C89.1041 5.62895 88.0043 5.16994 86.791 5.16994C85.0232 5.16994 83.8095 6.23063 83.8095 7.98463C83.8095 9.35117 84.559 10.3002 86.2937 10.545L87.2795 10.6772C88.4608 10.8408 89.0473 11.3709 89.0473 12.2684C89.0473 13.4618 88.0942 14.0634 86.7094 14.0634C85.3898 14.0634 84.5754 13.5639 83.9806 12.9827L83.5488 13.8492C84.4367 14.7061 85.5853 15.0735 86.7011 15.0735C88.6723 15.0735 90.0004 14.0229 90.0004 12.1969C90.0004 10.6772 89.0881 9.85121 87.4834 9.61646ZM70.3211 1.02881C69.9385 1.02881 69.6611 1.3962 69.6611 1.87527C69.6611 2.35479 69.9385 2.70167 70.3211 2.70167C70.7037 2.70167 70.9888 2.35479 70.9888 1.87527C70.9888 1.3962 70.7037 1.02881 70.3211 1.02881ZM78.3194 13.9818C76.5924 13.9818 75.3379 12.3299 75.3379 10.1265C75.3379 7.92354 76.5924 6.26116 78.3194 6.26116C80.0704 6.26116 81.3085 7.96411 81.3085 10.1265C81.3085 12.2994 80.0788 13.9818 78.3194 13.9818ZM78.4252 5.16994C77.0324 5.16994 76.0141 5.9658 75.4033 7.1482V5.32264H74.4746V19H75.4033V13.0944C76.0221 14.2882 77.0324 15.0735 78.4252 15.0735C80.5759 15.0735 82.2618 12.9827 82.2618 10.1265C82.2618 7.27127 80.5759 5.16994 78.4252 5.16994ZM20.9552 0.64456H18.1044L14.3348 6.42663H13.2601V0.64456H10.9863V14.9199H13.2601V9.04714H14.31L18.3665 14.9199H21.3149L16.1743 7.60812L20.9552 0.64456ZM41.6501 9.07859C41.6501 11.4128 40.5824 12.4526 39.0192 12.4526C37.4556 12.4526 36.3897 11.4128 36.3897 9.07859V0.64456H34.1094V9.21989C34.1094 13.1664 36.1207 15.1752 39.0192 15.1752C41.9199 15.1752 43.9308 13.1664 43.9308 9.21989V0.64456H41.6501V9.07859ZM26.6806 12.3113C24.6824 12.3113 23.0635 10.2842 23.0635 7.78179C23.0635 5.28253 24.6824 3.25231 26.6806 3.25231C28.677 3.25231 30.2959 5.28253 30.2959 7.78179C30.2959 10.2842 28.677 12.3113 26.6806 12.3113ZM26.6808 0.379272C23.4139 0.379272 20.7666 3.69399 20.7666 7.78178C20.7666 11.87 23.4139 15.1843 26.6808 15.1843C29.9459 15.1843 32.5932 11.87 32.5932 7.78178C32.5932 3.69399 29.9459 0.379272 26.6808 0.379272ZM5.8374 6.5281L5.19487 6.395C3.82607 6.12014 2.8417 5.78329 2.8417 4.74356C2.8417 3.66099 3.75363 3.02923 5.02267 3.02923C6.13628 3.02923 7.11809 3.44311 7.95757 4.02382L9.33074 1.91885C7.8895 0.848129 6.57968 0.397779 4.97535 0.397779C2.54756 0.397779 0.429932 1.94711 0.429932 4.92452C0.429932 7.51677 1.89593 8.60755 3.90762 9.0155L4.63133 9.15681C6.21964 9.48272 7.0522 9.84008 7.0522 10.8315C7.0522 11.9305 6.08167 12.554 4.81226 12.554C3.4482 12.554 2.21082 11.9332 1.37571 11.1971L0 13.3102C1.22172 14.5428 3.06814 15.1745 4.80352 15.1745C7.25607 15.1745 9.47126 13.6644 9.47126 10.5252C9.47126 8.04643 7.88294 6.93606 5.8374 6.5281Z" fill="#B2B2B2"/>
</svg>
