<?xml version="1.0" encoding="UTF-8"?>
<svg width="248px" height="42px" viewBox="0 0 248 42" version="1.1" xmlns="http://www.w3.org/2000/svg" xmlns:xlink="http://www.w3.org/1999/xlink">
    <!-- Generator: Sketch 54.1 (76490) - https://sketchapp.com -->
    <title>Fill 1</title>
    <desc>Created with Sketch.</desc>
    <g id="Desktop" stroke="none" stroke-width="1" fill="none" fill-rule="evenodd">
        <g id="Tips-&amp;-Tools" transform="translate(-134.000000, -658.000000)" fill="#B2B2B2">
            <g id="SKOUT-Tips" transform="translate(134.000000, 637.812500)">
                <path d="M191.892,52.6470937 L194.444,52.6470937 L194.444,31.5910937 L191.892,31.5910937 L191.892,52.6470937 Z M123.798,27.1640937 L133.506,27.1640937 L133.506,52.6460937 L139.752,52.6460937 L139.752,27.1640937 L149.46,27.1640937 L149.46,21.3280937 L123.798,21.3280937 L123.798,27.1640937 Z M162.827,23.9170937 L174.105,23.9170937 L174.105,52.6470937 L176.835,52.6470937 L176.835,23.9170937 L188.134,23.9170937 L188.134,21.3210937 L162.827,21.3210937 L162.827,23.9170937 Z M240.311,41.0110937 L237.625,40.6990937 C234.381,40.3180937 232.837,39.2670937 232.837,37.2970937 C232.837,34.9030937 235.142,33.4940937 238.431,33.4940937 C241.362,33.4940937 244.159,34.5890937 245.569,35.5960937 L246.664,33.6280937 C244.763,32.2630937 241.742,31.2560937 238.409,31.2560937 C233.553,31.2560937 230.219,33.5830937 230.219,37.4310937 C230.219,40.4290937 232.278,42.5110937 237.043,43.0480937 L239.751,43.3380937 C242.996,43.6970937 244.607,44.8600937 244.607,46.8290937 C244.607,49.4470937 241.989,50.7670937 238.185,50.7670937 C234.56,50.7670937 232.323,49.6710937 230.689,48.3960937 L229.503,50.2970937 C231.942,52.1770937 235.097,52.9830937 238.162,52.9830937 C243.577,52.9830937 247.225,50.6780937 247.225,46.6720937 C247.225,43.3380937 244.719,41.5260937 240.311,41.0110937 L240.311,41.0110937 Z M193.168,22.1710937 C192.117,22.1710937 191.355,22.9770937 191.355,24.0280937 C191.355,25.0800937 192.117,25.8410937 193.168,25.8410937 C194.219,25.8410937 195.002,25.0800937 195.002,24.0280937 C195.002,22.9770937 194.219,22.1710937 193.168,22.1710937 L193.168,22.1710937 Z M215.14,50.5880937 C210.396,50.5880937 206.95,46.9640937 206.95,42.1300937 C206.95,37.2970937 210.396,33.6500937 215.14,33.6500937 C219.95,33.6500937 223.351,37.3860937 223.351,42.1300937 C223.351,46.8970937 219.973,50.5880937 215.14,50.5880937 L215.14,50.5880937 Z M215.43,31.2560937 C211.604,31.2560937 208.807,33.0020937 207.129,35.5960937 L207.129,31.5910937 L204.578,31.5910937 L204.578,61.5970937 L207.129,61.5970937 L207.129,48.6410937 C208.829,51.2600937 211.604,52.9830937 215.43,52.9830937 C221.338,52.9830937 225.969,48.3960937 225.969,42.1300937 C225.969,35.8660937 221.338,31.2560937 215.43,31.2560937 L215.43,31.2560937 Z M57.565,21.3280937 L49.734,21.3280937 L39.379,34.0130937 L36.427,34.0130937 L36.427,21.3280937 L30.181,21.3280937 L30.181,52.6460937 L36.427,52.6460937 L36.427,39.7620937 L39.311,39.7620937 L50.454,52.6460937 L58.553,52.6460937 L44.432,36.6050937 L57.565,21.3280937 Z M114.409,39.8310937 C114.409,44.9520937 111.476,47.2330937 107.182,47.2330937 C102.887,47.2330937 99.959,44.9520937 99.959,39.8310937 L99.959,21.3280937 L93.695,21.3280937 L93.695,40.1410937 C93.695,48.7990937 99.22,53.2060937 107.182,53.2060937 C115.15,53.2060937 120.674,48.7990937 120.674,40.1410937 L120.674,21.3280937 L114.409,21.3280937 L114.409,39.8310937 Z M73.29,46.9230937 C67.801,46.9230937 63.354,42.4760937 63.354,36.9860937 C63.354,31.5030937 67.801,27.0490937 73.29,27.0490937 C78.774,27.0490937 83.221,31.5030937 83.221,36.9860937 C83.221,42.4760937 78.774,46.9230937 73.29,46.9230937 L73.29,46.9230937 Z M73.29,20.7460937 C64.316,20.7460937 57.044,28.0180937 57.044,36.9860937 C57.044,45.9550937 64.316,53.2260937 73.29,53.2260937 C82.259,53.2260937 89.531,45.9550937 89.531,36.9860937 C89.531,28.0180937 82.259,20.7460937 73.29,20.7460937 L73.29,20.7460937 Z M16.035,34.2370937 L14.27,33.9450937 C10.51,33.3420937 7.806,32.6030937 7.806,30.3220937 C7.806,27.9470937 10.311,26.5610937 13.797,26.5610937 C16.856,26.5610937 19.553,27.4690937 21.859,28.7430937 L25.631,24.1250937 C21.672,21.7760937 18.074,20.7880937 13.667,20.7880937 C6.998,20.7880937 1.181,24.1870937 1.181,30.7190937 C1.181,36.4060937 5.208,38.7990937 10.734,39.6940937 L12.722,40.0040937 C17.085,40.7190937 19.372,41.5030937 19.372,43.6780937 C19.372,46.0890937 16.706,47.4570937 13.219,47.4570937 C9.472,47.4570937 6.073,46.0950937 3.779,44.4800937 L1.84741111e-13,49.1160937 C3.356,51.8200937 8.428,53.2060937 13.195,53.2060937 C19.932,53.2060937 26.017,49.8930937 26.017,43.0060937 C26.017,37.5680937 21.654,35.1320937 16.035,34.2370937 L16.035,34.2370937 Z" id="Fill-1"></path>
            </g>
        </g>
    </g>
</svg>