<?xml version="1.0" encoding="UTF-8"?>
<svg width="343px" height="42px" viewBox="0 0 343 42" version="1.1" xmlns="http://www.w3.org/2000/svg" xmlns:xlink="http://www.w3.org/1999/xlink">
    <!-- Generator: Sketch 54.1 (76490) - https://sketchapp.com -->
    <title>Skout Glossary</title>
    <desc>Created with Sketch.</desc>
    <g id="Desktop" stroke="none" stroke-width="1" fill="none" fill-rule="evenodd">
        <g id="Tips-&amp;-Tools" transform="translate(-134.000000, -1585.000000)" fill="#B2B2B2">
            <g id="SKOUT-Glossary" transform="translate(134.000000, 1564.812500)">
                <path d="M199.897,52.8180937 L202.448,52.8180937 L202.448,20.5970937 L199.897,20.5970937 L199.897,52.8180937 Z M219.26,50.7600937 C214.538,50.7600937 210.936,47.2020937 210.936,42.3020937 C210.936,37.4020937 214.538,33.8220937 219.26,33.8220937 C224.004,33.8220937 227.606,37.4020937 227.606,42.3020937 C227.606,47.2020937 224.004,50.7600937 219.26,50.7600937 L219.26,50.7600937 Z M219.26,31.4280937 C213.017,31.4280937 208.341,36.1040937 208.341,42.3020937 C208.341,48.4780937 213.017,53.1540937 219.26,53.1540937 C225.503,53.1540937 230.224,48.4780937 230.224,42.3020937 C230.224,36.1040937 225.503,31.4280937 219.26,31.4280937 L219.26,31.4280937 Z M266.076,41.1830937 L263.391,40.8700937 C260.146,40.4900937 258.602,39.4370937 258.602,37.4690937 C258.602,35.0750937 260.907,33.6650937 264.196,33.6650937 C267.127,33.6650937 269.924,34.7620937 271.334,35.7680937 L272.43,33.8000937 C270.528,32.4340937 267.508,31.4280937 264.174,31.4280937 C259.319,31.4280937 255.985,33.7550937 255.985,37.6030937 C255.985,40.6020937 258.043,42.6820937 262.809,43.2200937 L265.516,43.5110937 C268.761,43.8680937 270.372,45.0320937 270.372,47.0010937 C270.372,49.6190937 267.754,50.9390937 263.951,50.9390937 C260.325,50.9390937 258.087,49.8430937 256.454,48.5670937 L255.268,50.4700937 C257.707,52.3480937 260.862,53.1540937 263.928,53.1540937 C269.342,53.1540937 272.99,50.8490937 272.99,46.8440937 C272.99,43.5110937 270.484,41.6980937 266.076,41.1830937 L266.076,41.1830937 Z M287.511,50.7600937 C282.722,50.7600937 279.299,47.0680937 279.299,42.3020937 C279.299,37.5580937 282.678,33.8220937 287.511,33.8220937 C292.277,33.8220937 295.7,37.4690937 295.7,42.3020937 C295.7,47.1350937 292.277,50.7600937 287.511,50.7600937 L287.511,50.7600937 Z M295.566,35.8130937 C293.865,33.1950937 291.068,31.4280937 287.219,31.4280937 C281.313,31.4280937 276.703,36.0360937 276.703,42.3020937 C276.703,48.5670937 281.313,53.1540937 287.219,53.1540937 C291.068,53.1540937 293.865,51.4310937 295.566,48.7680937 L295.566,52.8180937 L298.094,52.8180937 L298.094,31.7630937 L295.566,31.7630937 L295.566,35.8130937 Z M339.284,31.7630937 L331.342,45.6140937 L322.862,31.7630937 L319.997,31.7630937 L329.888,48.1200937 L321.832,61.8360937 L324.652,61.8360937 L342.082,31.7630937 L339.284,31.7630937 Z M307.379,35.3440937 L307.379,31.7630937 L304.873,31.7630937 L304.873,52.8180937 L307.401,52.8180937 L307.401,40.9370937 C307.401,36.7080937 309.908,33.8440937 313.42,33.8440937 C314.696,33.8440937 316.105,34.1350937 317.157,34.6950937 L317.805,32.2110937 C316.664,31.6520937 315.389,31.4050937 313.867,31.4050937 C311.071,31.4050937 308.743,32.8600937 307.379,35.3440937 L307.379,35.3440937 Z M244.686,41.1830937 L242,40.8700937 C238.756,40.4900937 237.212,39.4370937 237.212,37.4690937 C237.212,35.0750937 239.518,33.6650937 242.807,33.6650937 C245.738,33.6650937 248.534,34.7620937 249.944,35.7680937 L251.041,33.8000937 C249.139,32.4340937 246.117,31.4280937 242.784,31.4280937 C237.928,31.4280937 234.595,33.7550937 234.595,37.6030937 C234.595,40.6020937 236.654,42.6820937 241.419,43.2200937 L244.126,43.5110937 C247.37,43.8680937 248.982,45.0320937 248.982,47.0010937 C248.982,49.6190937 246.364,50.9390937 242.561,50.9390937 C238.936,50.9390937 236.698,49.8430937 235.065,48.5670937 L233.879,50.4700937 C236.318,52.3480937 239.472,53.1540937 242.537,53.1540937 C247.952,53.1540937 251.6,50.8490937 251.6,46.8440937 C251.6,43.5110937 249.094,41.6980937 244.686,41.1830937 L244.686,41.1830937 Z M57.565,21.5000937 L49.734,21.5000937 L39.379,34.1850937 L36.427,34.1850937 L36.427,21.5000937 L30.181,21.5000937 L30.181,52.8180937 L36.427,52.8180937 L36.427,39.9340937 L39.311,39.9340937 L50.454,52.8180937 L58.553,52.8180937 L44.432,36.7770937 L57.565,21.5000937 Z M73.29,47.0950937 C67.801,47.0950937 63.354,42.6480937 63.354,37.1580937 C63.354,31.6750937 67.801,27.2210937 73.29,27.2210937 C78.774,27.2210937 83.221,31.6750937 83.221,37.1580937 C83.221,42.6480937 78.774,47.0950937 73.29,47.0950937 L73.29,47.0950937 Z M73.29,20.9180937 C64.316,20.9180937 57.044,28.1900937 57.044,37.1580937 C57.044,46.1270937 64.316,53.3980937 73.29,53.3980937 C82.259,53.3980937 89.531,46.1270937 89.531,37.1580937 C89.531,28.1900937 82.259,20.9180937 73.29,20.9180937 L73.29,20.9180937 Z M16.035,34.4090937 L14.27,34.1170937 C10.51,33.5140937 7.806,32.7740937 7.806,30.4930937 C7.806,28.1190937 10.311,26.7330937 13.797,26.7330937 C16.856,26.7330937 19.553,27.6410937 21.859,28.9150937 L25.631,24.2970937 C21.672,21.9480937 18.074,20.9590937 13.667,20.9590937 C6.998,20.9590937 1.181,24.3590937 1.181,30.8910937 C1.181,36.5780937 5.208,38.9710937 10.734,39.8660937 L12.722,40.1770937 C17.085,40.8910937 19.372,41.6750937 19.372,43.8500937 C19.372,46.2620937 16.706,47.6290937 13.219,47.6290937 C9.472,47.6290937 6.073,46.2670937 3.779,44.6520937 L1.70530257e-13,49.2880937 C3.356,51.9920937 8.428,53.3780937 13.195,53.3780937 C19.932,53.3780937 26.017,50.0650937 26.017,43.1790937 C26.017,37.7400937 21.654,35.3040937 16.035,34.4090937 L16.035,34.4090937 Z M123.798,27.3370937 L133.506,27.3370937 L133.506,52.8180937 L139.752,52.8180937 L139.752,27.3370937 L149.46,27.3370937 L149.46,21.5000937 L123.798,21.5000937 L123.798,27.3370937 Z M114.409,40.0030937 C114.409,45.1240937 111.476,47.4050937 107.182,47.4050937 C102.887,47.4050937 99.959,45.1240937 99.959,40.0030937 L99.959,21.5000937 L93.695,21.5000937 L93.695,40.3130937 C93.695,48.9710937 99.22,53.3780937 107.182,53.3780937 C115.15,53.3780937 120.674,48.9710937 120.674,40.3130937 L120.674,21.5000937 L114.409,21.5000937 L114.409,40.0030937 Z M180.365,36.3050937 L180.365,38.8560937 L190.971,38.8560937 C190.546,46.0160937 186.026,50.5360937 178.866,50.5360937 C171.594,50.5360937 165.798,45.1430937 165.798,37.1560937 C165.798,29.1680937 171.572,23.7750937 179,23.7750937 C183.139,23.7750937 186.698,25.5430937 189.114,28.4300937 L191.127,26.4830937 C188.241,23.1480937 183.945,21.1350937 179,21.1350937 C169.893,21.1350937 162.957,27.7360937 162.957,37.1560937 C162.957,47.1130937 170.52,53.1540937 178.866,53.1540937 C188.152,53.1540937 193.969,46.2630937 193.969,37.0440937 L193.969,36.7080937 C193.969,36.5960937 193.947,36.4620937 193.924,36.3050937 L180.365,36.3050937 Z" id="Skout-Glossary"></path>
            </g>
        </g>
    </g>
</svg>